<svg width="72" height="72" viewBox="0 0 72 72" fill="none" xmlns="http://www.w3.org/2000/svg">
<rect width="72" height="72" rx="16" fill="#89B24C"/>
<path d="M29.3332 29.3332C28.5968 29.3332 27.9998 29.9301 27.9998 30.6665C27.9998 31.4029 28.5968 31.9998 29.3332 31.9998H37.3332C38.0695 31.9998 38.6665 31.4029 38.6665 30.6665C38.6665 29.9301 38.0695 29.3332 37.3332 29.3332H29.3332Z" fill="white"/>
<path d="M27.9998 35.9998C27.9998 35.2635 28.5968 34.6665 29.3332 34.6665H37.3332C38.0695 34.6665 38.6665 35.2635 38.6665 35.9998C38.6665 36.7362 38.0695 37.3332 37.3332 37.3332H29.3332C28.5968 37.3332 27.9998 36.7362 27.9998 35.9998Z" fill="white"/>
<path d="M29.3332 39.9998C28.5968 39.9998 27.9998 40.5968 27.9998 41.3332C27.9998 42.0696 28.5968 42.6665 29.3332 42.6665H37.3332C38.0695 42.6665 38.6665 42.0696 38.6665 41.3332C38.6665 40.5968 38.0695 39.9998 37.3332 39.9998H29.3332Z" fill="white"/>
<path fill-rule="evenodd" clip-rule="evenodd" d="M27.4998 23.9998H29.3781C30.28 23.1616 31.5296 22.6665 32.8331 22.6665H44.4998C47.0172 22.6665 49.3331 24.5131 49.3331 27.1109V39.5554C49.3331 42.1533 47.0172 43.9998 44.4998 43.9998H43.9198C43.5078 46.2625 41.5514 47.9998 39.1665 47.9998H27.4998C24.8107 47.9998 22.6665 45.7911 22.6665 43.1109V28.8887C22.6665 26.2085 24.8107 23.9998 27.4998 23.9998ZM44.4998 41.3332H43.9998V28.8887C43.9998 27.4944 43.4195 26.2277 42.4841 25.3332H44.4998C45.8484 25.3332 46.6665 26.2724 46.6665 27.1109V39.5554C46.6665 40.3939 45.8484 41.3332 44.4998 41.3332ZM27.4998 26.6665C26.3229 26.6665 25.3332 27.6416 25.3332 28.8887V43.1109C25.3332 44.3581 26.3229 45.3332 27.4998 45.3332H39.1665C40.3434 45.3332 41.3332 44.3581 41.3332 43.1109V28.8887C41.3332 27.6416 40.3434 26.6665 39.1665 26.6665H27.4998Z" fill="white"/>
</svg>
