<svg width="129" height="128" viewBox="0 0 129 128" fill="none" xmlns="http://www.w3.org/2000/svg">
<rect x="0.25" width="128" height="128" fill="white"/>
<ellipse opacity="0.2" rx="36.5749" ry="46.7636" transform="matrix(-0.347244 0.937775 0.937775 0.347244 56.8042 54.241)" fill="#9EB7D6"/>
<rect x="23.95" y="43.5" width="69" height="45" rx="6.5" fill="#9EB7D6" stroke="black" stroke-width="3"/>
<path d="M47.6423 13C42.1421 22 52.6421 27 47.6423 34.5" stroke="black" stroke-width="3" stroke-linecap="round"/>
<path d="M57.6423 13C52.1421 22 62.6421 27 57.6423 34.5" stroke="black" stroke-width="3" stroke-linecap="round"/>
<path d="M67.6423 13C62.1421 22 72.6421 27 67.6423 34.5" stroke="black" stroke-width="3" stroke-linecap="round"/>
<path d="M38.45 89L38.45 95" stroke="black" stroke-width="3" stroke-linecap="round" stroke-linejoin="round"/>
<path d="M79.45 89L79.45 95" stroke="black" stroke-width="3" stroke-linecap="round" stroke-linejoin="round"/>
<path d="M83.45 51L83.45 82" stroke="black" stroke-width="3" stroke-linecap="round" stroke-linejoin="round"/>
<path d="M33.45 51L33.45 82" stroke="black" stroke-width="3" stroke-linecap="round" stroke-linejoin="round"/>
<path d="M43.45 51L43.45 82" stroke="black" stroke-width="3" stroke-linecap="round" stroke-linejoin="round"/>
<path d="M53.45 51L53.45 82" stroke="black" stroke-width="3" stroke-linecap="round" stroke-linejoin="round"/>
<path d="M63.45 51L63.45 82" stroke="black" stroke-width="3" stroke-linecap="round" stroke-linejoin="round"/>
<path d="M73.45 51L73.45 82" stroke="black" stroke-width="3" stroke-linecap="round" stroke-linejoin="round"/>
</svg>
