<svg width="129" height="128" viewBox="0 0 129 128" fill="none" xmlns="http://www.w3.org/2000/svg">
<rect x="0.5" width="128" height="128" fill="white"/>
<ellipse opacity="0.2" rx="36.5749" ry="46.7636" transform="matrix(-0.347244 0.937775 0.937775 0.347244 64.0542 62.241)" fill="#89B24C"/>
<mask id="path-3-inside-1_8_144" fill="white">
<rect x="47.5" y="29" width="33" height="19" rx="2"/>
</mask>
<rect x="47.5" y="29" width="33" height="19" rx="2" fill="#3B5711" stroke="black" stroke-width="6" mask="url(#path-3-inside-1_8_144)"/>
<path d="M64.5 38.5C72.3408 38.5 78.728 32.2766 78.9915 24.5H91.2313C89.4996 27.8729 88.0075 31.6965 86.9209 35.2207C85.7475 39.0265 85 42.6332 85 45C85 50.5053 88.0686 55.2916 92.5816 57.7459C92.8859 57.9114 93 58.1624 93 58.3366V99C93 99.2761 92.7761 99.5 92.5 99.5H36.5C36.2239 99.5 36 99.2761 36 99V58.3366C36 58.1624 36.1141 57.9114 36.4184 57.7459C40.9314 55.2916 44 50.5053 44 45C44 42.6332 43.2525 39.0265 42.0791 35.2207C40.9925 31.6965 39.5003 27.8729 37.7687 24.5H50.0085C50.272 32.2766 56.6592 38.5 64.5 38.5Z" fill="#89B24C" stroke="black" stroke-width="3"/>
<mask id="path-5-inside-2_8_144" fill="white">
<rect x="50.5" y="47" width="28" height="13" rx="2"/>
</mask>
<rect x="50.5" y="47" width="28" height="13" rx="2" fill="#3B5711" stroke="black" stroke-width="6" mask="url(#path-5-inside-2_8_144)"/>
<mask id="path-6-inside-3_8_144" fill="white">
<rect x="31.5" y="74" width="18" height="20" rx="2"/>
</mask>
<rect x="31.5" y="74" width="18" height="20" rx="2" fill="#3B5711" stroke="black" stroke-width="6" mask="url(#path-6-inside-3_8_144)"/>
<mask id="path-7-inside-4_8_144" fill="white">
<rect x="80.5" y="75" width="18" height="19" rx="2"/>
</mask>
<rect x="80.5" y="75" width="18" height="19" rx="2" fill="#3B5711" stroke="black" stroke-width="6" mask="url(#path-7-inside-4_8_144)"/>
<line x1="57" y1="69.5" x2="72" y2="69.5" stroke="black" stroke-width="3" stroke-linecap="round"/>
<line x1="75" y1="34.5" x2="86" y2="34.5" stroke="black" stroke-width="3" stroke-linecap="round"/>
<line x1="43" y1="34.5" x2="54" y2="34.5" stroke="black" stroke-width="3" stroke-linecap="round"/>
<line x1="57" y1="75.5" x2="72" y2="75.5" stroke="black" stroke-width="3" stroke-linecap="round"/>
<line x1="57" y1="81.5" x2="72" y2="81.5" stroke="black" stroke-width="3" stroke-linecap="round"/>
</svg>
