<svg width="180" height="56" viewBox="0 0 180 56" fill="none" xmlns="http://www.w3.org/2000/svg">
<path d="M77.8268 44.7017H74.7832L73.4195 35.6122L69.2889 44.6818H68.5577L64.4271 35.6122L63.0634 44.7017H60L62.174 30.779H65.1781L68.9134 39.3116L72.6685 30.779H75.6726L77.8268 44.7017Z" fill="#232D39"/>
<path d="M89.8157 44.7017L88.8473 42.0564H83.3332L82.3845 44.7017H79.2223L84.6376 30.779H87.4638L93.0569 44.7017H89.8157ZM86.0803 34.4586L84.2818 39.4309H87.8986L86.0803 34.4586Z" fill="#232D39"/>
<path d="M97.9736 29.2475V27H103.922V29.2475H97.9736ZM104.614 30.779H106.788V44.7017H103.784V36.3282L97.3807 44.7017H95.3055V30.779H98.3096V39.053L104.614 30.779Z" fill="#232D39"/>
<path d="M115.884 35.8111C116.766 35.8111 117.55 36.0033 118.236 36.3878C118.921 36.7591 119.454 37.2829 119.836 37.9591C120.218 38.6354 120.41 39.3978 120.41 40.2464C120.41 41.5459 119.981 42.6133 119.125 43.4486C118.282 44.284 117.201 44.7017 115.884 44.7017H110.449V30.779H119.323V33.5238H113.393V35.8111H115.884ZM115.627 41.937C116.127 41.937 116.536 41.7779 116.852 41.4597C117.181 41.1414 117.346 40.737 117.346 40.2464C117.346 40.0077 117.3 39.7823 117.208 39.5702C117.129 39.358 117.017 39.179 116.872 39.0331C116.727 38.8873 116.542 38.7746 116.318 38.695C116.108 38.6022 115.877 38.5558 115.627 38.5558H113.393V41.937H115.627Z" fill="#232D39"/>
<path d="M130.732 30.779H133.855L129.942 40.1669C129.243 41.8906 128.459 43.084 127.59 43.747C126.733 44.4099 125.554 44.7414 124.052 44.7414H123.499V41.937H124.368C124.988 41.937 125.462 41.8442 125.791 41.6586C126.121 41.4729 126.424 41.1215 126.7 40.6044L121.562 30.779H124.922L128.202 37.1436L130.732 30.779Z" fill="#232D39"/>
<path d="M145.514 30.779V33.5834H141.66V44.7017H138.656V33.5834H134.821V30.779H145.514Z" fill="#232D39"/>
<path d="M156.205 30.779H159.19V44.7017H156.205V38.9536H151.008V44.7017H148.004V30.779H151.008V36.1492H156.205V30.779Z" fill="#232D39"/>
<path d="M173.016 39.2519H176C175.697 40.989 174.92 42.3812 173.668 43.4287C172.429 44.4762 170.94 45 169.201 45C167.146 45 165.44 44.3105 164.082 42.9315C162.739 41.5392 162.067 39.8088 162.067 37.7403C162.067 35.6718 162.745 33.9481 164.102 32.5691C165.473 31.1768 167.172 30.4807 169.201 30.4807C170.321 30.4807 171.342 30.7061 172.265 31.1569C173.2 31.6077 173.984 32.2508 174.617 33.0862C175.249 33.9215 175.697 34.9028 175.96 36.0298H172.976C172.66 35.1945 172.172 34.5381 171.514 34.0608C170.855 33.5834 170.084 33.3448 169.201 33.3448C168.253 33.3448 167.416 33.6232 166.691 34.1801C165.98 34.737 165.492 35.4729 165.229 36.3878H170.525V39.0729H165.229C165.492 40.0011 165.98 40.7436 166.691 41.3006C167.403 41.8575 168.239 42.1359 169.201 42.1359C169.807 42.1359 170.367 42.0166 170.881 41.7779C171.395 41.5392 171.83 41.2077 172.186 40.7834C172.555 40.3459 172.831 39.8354 173.016 39.2519Z" fill="#232D39"/>
<path d="M62.3435 18.1083C62.9293 18.1083 63.4087 18.2838 63.7815 18.6348C64.1602 18.9858 64.3496 19.4303 64.3496 19.9682C64.3496 20.5117 64.1573 20.9618 63.7726 21.3185C63.3939 21.6695 62.9145 21.845 62.3346 21.845H60V15.9002H63.8791V16.8089H61.0119V18.1083H62.3435ZM62.2547 20.9193C62.5624 20.9193 62.8139 20.8316 63.0092 20.6561C63.2045 20.4749 63.3021 20.2456 63.3021 19.9682C63.3021 19.787 63.2578 19.6256 63.169 19.4841C63.0802 19.3425 62.956 19.2321 62.7962 19.1529C62.6423 19.0736 62.4618 19.034 62.2547 19.034H61.0119V20.9193H62.2547Z" fill="#7B899A"/>
<path d="M66.2158 17.259H69.4736V21.845H68.506V18.0743H67.0236L66.8105 20.104C66.7454 20.7495 66.5709 21.2052 66.2868 21.4713C66.0087 21.7374 65.5855 21.8705 65.0174 21.8705H64.8488V21.0042H65.0796C65.5471 21.0042 65.8104 20.724 65.8696 20.1635L66.2158 17.259Z" fill="#7B899A"/>
<path d="M74.8894 17.259H75.6528V21.845H74.8539L74.7562 21.2845C74.2947 21.7318 73.7177 21.9554 73.0253 21.9554C72.3092 21.9554 71.7115 21.7261 71.2322 21.2675C70.7588 20.8089 70.522 20.2371 70.522 19.552C70.522 18.8613 70.7588 18.2895 71.2322 17.8365C71.7115 17.3779 72.3092 17.1486 73.0253 17.1486C73.7295 17.1486 74.3124 17.3751 74.774 17.828L74.8894 17.259ZM71.969 20.6306C72.2708 20.9137 72.6465 21.0552 73.0963 21.0552C73.552 21.0552 73.9248 20.9137 74.2148 20.6306C74.5107 20.3418 74.6586 19.9823 74.6586 19.552C74.6586 19.1161 74.5107 18.7565 74.2148 18.4735C73.9248 18.1904 73.552 18.0488 73.0963 18.0488C72.8004 18.0488 72.5311 18.1139 72.2885 18.2442C72.0518 18.3744 71.8654 18.5556 71.7293 18.7877C71.5932 19.0142 71.5251 19.2689 71.5251 19.552C71.5251 19.9823 71.6731 20.3418 71.969 20.6306Z" fill="#7B899A"/>
<path d="M80.1204 17.259V18.0998H78.0254V21.845H77.0579V17.259H80.1204Z" fill="#7B899A"/>
<path d="M84.8677 21.276C84.3824 21.7289 83.7729 21.9554 83.0391 21.9554C82.3053 21.9554 81.6928 21.7289 81.2016 21.276C80.7163 20.8174 80.4737 20.2427 80.4737 19.552C80.4737 19.0991 80.5832 18.6886 80.8021 18.3206C81.027 17.9526 81.3347 17.6667 81.7253 17.4628C82.1218 17.2534 82.5597 17.1486 83.0391 17.1486C83.5184 17.1486 83.9534 17.2534 84.3439 17.4628C84.7404 17.6667 85.0482 17.9526 85.2671 18.3206C85.492 18.6886 85.6044 19.0991 85.6044 19.552C85.6044 20.2427 85.3589 20.8174 84.8677 21.276ZM83.0391 21.0552C83.3409 21.0552 83.6101 20.9929 83.8469 20.8684C84.0836 20.7381 84.267 20.5598 84.3972 20.3333C84.5333 20.1012 84.6014 19.8408 84.6014 19.552C84.6014 19.1161 84.4534 18.7565 84.1575 18.4735C83.8676 18.1904 83.4947 18.0488 83.0391 18.0488C82.5834 18.0488 82.2076 18.1904 81.9117 18.4735C81.6218 18.7565 81.4768 19.1161 81.4768 19.552C81.4768 19.988 81.6218 20.3475 81.9117 20.6306C82.2076 20.9137 82.5834 21.0552 83.0391 21.0552Z" fill="#7B899A"/>
<path d="M90.7219 20.9533H91.3433V23H90.4468V21.845H86.9493V23H86.0528V20.9533H86.5588C86.6949 20.8457 86.7984 20.6815 86.8694 20.4607C86.9464 20.2399 87.0144 19.9059 87.0736 19.4586C87.1328 19.0057 87.2097 18.2725 87.3044 17.259H90.7219V20.9533ZM88.1743 18.0913C88.1092 19.0142 88.0353 19.6766 87.9524 20.0786C87.8696 20.4805 87.7482 20.7721 87.5885 20.9533H89.7544V18.0913H88.1743Z" fill="#7B899A"/>
<path d="M92.3837 16.5456V15.5775H93.4045V16.5456H92.3837ZM92.4015 21.845V17.259H93.3868V21.845H92.4015Z" fill="#7B899A"/>
<path d="M98.0431 15.7473V16.4522H95.6641V15.7473H98.0431ZM98.3005 17.259H98.8509V21.845H97.91V18.9321L95.3535 21.845H94.7853V17.259H95.7352V20.1465L98.3005 17.259Z" fill="#7B899A"/>
<path d="M103.451 17.259H104.418V21.845H103.451V19.9257H101.232V21.845H100.255V17.259H101.232V19.0594H103.451V17.259Z" fill="#7B899A"/>
<path d="M109.336 17.259H109.886V21.845H108.945V18.9321L106.389 21.845H105.821V17.259H106.77V20.1465L109.336 17.259Z" fill="#7B899A"/>
<path d="M114.548 15.7473V16.4522H112.169V15.7473H114.548ZM114.806 17.259H115.356V21.845H114.415V18.9321L111.859 21.845H111.291V17.259H112.24V20.1465L114.806 17.259Z" fill="#7B899A"/>
<path d="M125.717 18.8641C125.717 19.2548 125.649 19.6284 125.512 19.9851C125.382 20.3418 125.19 20.6617 124.936 20.9448C124.687 21.2279 124.37 21.46 123.986 21.6412C123.601 21.8167 123.175 21.9186 122.707 21.9469V22.8556H121.713V21.9469C121.246 21.9186 120.82 21.8167 120.435 21.6412C120.05 21.46 119.731 21.2307 119.476 20.9533C119.228 20.6702 119.035 20.3503 118.899 19.9936C118.763 19.6369 118.695 19.2661 118.695 18.8811C118.695 18.5697 118.737 18.2696 118.819 17.9809C118.902 17.6865 119.03 17.4147 119.201 17.1656C119.373 16.9108 119.577 16.6872 119.814 16.4947C120.056 16.2965 120.337 16.138 120.657 16.0191C120.982 15.8946 121.335 15.8209 121.713 15.7983V15H122.707V15.7983C123.175 15.8266 123.601 15.9285 123.986 16.104C124.37 16.2795 124.687 16.5088 124.936 16.7919C125.19 17.0694 125.382 17.3864 125.512 17.7431C125.649 18.0998 125.717 18.4735 125.717 18.8641ZM122.699 21.0212C123.302 20.9703 123.784 20.741 124.145 20.3333C124.506 19.92 124.687 19.4331 124.687 18.8726C124.687 18.3178 124.506 17.8365 124.145 17.4289C123.784 17.0156 123.302 16.7834 122.699 16.7325V21.0212ZM119.734 18.8726C119.734 19.4275 119.911 19.9115 120.266 20.3248C120.627 20.7381 121.11 20.9703 121.713 21.0212V16.7325C121.116 16.7834 120.636 17.0156 120.275 17.4289C119.914 17.8365 119.734 18.3178 119.734 18.8726Z" fill="#7B899A"/>
<path d="M130.864 21.276C130.378 21.7289 129.769 21.9554 129.035 21.9554C128.301 21.9554 127.689 21.7289 127.198 21.276C126.712 20.8174 126.47 20.2427 126.47 19.552C126.47 19.0991 126.579 18.6886 126.798 18.3206C127.023 17.9526 127.331 17.6667 127.721 17.4628C128.118 17.2534 128.556 17.1486 129.035 17.1486C129.514 17.1486 129.949 17.2534 130.34 17.4628C130.736 17.6667 131.044 17.9526 131.263 18.3206C131.488 18.6886 131.6 19.0991 131.6 19.552C131.6 20.2427 131.355 20.8174 130.864 21.276ZM129.035 21.0552C129.337 21.0552 129.606 20.9929 129.843 20.8684C130.08 20.7381 130.263 20.5598 130.393 20.3333C130.529 20.1012 130.597 19.8408 130.597 19.552C130.597 19.1161 130.449 18.7565 130.154 18.4735C129.864 18.1904 129.491 18.0488 129.035 18.0488C128.579 18.0488 128.204 18.1904 127.908 18.4735C127.618 18.7565 127.473 19.1161 127.473 19.552C127.473 19.988 127.618 20.3475 127.908 20.6306C128.204 20.9137 128.579 21.0552 129.035 21.0552Z" fill="#7B899A"/>
<path d="M135.846 17.259H136.813V21.845H135.846V19.9257H133.627V21.845H132.65V17.259H133.627V19.0594H135.846V17.259Z" fill="#7B899A"/>
<path d="M142.379 20.9533H143V23H142.103V21.845H138.606V23H137.709V20.9533H138.215C138.352 20.8457 138.455 20.6815 138.526 20.4607C138.603 20.2399 138.671 19.9059 138.73 19.4586C138.789 19.0057 138.866 18.2725 138.961 17.259H142.379V20.9533ZM139.831 18.0913C139.766 19.0142 139.692 19.6766 139.609 20.0786C139.526 20.4805 139.405 20.7721 139.245 20.9533H141.411V18.0913H139.831Z" fill="#7B899A"/>
<g clip-path="url(#clip0_2_78)">
<path fill-rule="evenodd" clip-rule="evenodd" d="M12.4864 48.3623C18.8901 53.9032 30.6949 52.1788 38.8337 42.7728C46.9725 33.3668 46.9826 21.4366 40.579 15.8957C34.1753 10.3548 22.3705 12.0793 14.2317 21.4853C6.09292 30.8913 6.08278 42.8214 12.4864 48.3623ZM10.916 50.1772C18.712 56.9229 32.0238 54.3109 40.6486 44.3432C49.2735 34.3754 49.9454 20.8265 42.1494 14.0808C34.3534 7.33513 21.0416 9.94712 12.4168 19.9149C3.79195 29.8826 3.12004 43.4315 10.916 50.1772Z" fill="#FFD60A"/>
<path fill-rule="evenodd" clip-rule="evenodd" d="M8.6562 42.7669C11.5967 50.7081 22.7712 54.8864 34.4356 50.5672C46.1 46.2481 51.8585 35.7998 48.918 27.8586C45.9775 19.9174 34.803 15.7392 23.1386 20.0583C11.4742 24.3774 5.71571 34.8258 8.6562 42.7669ZM6.40554 43.6003C9.98539 53.2681 22.908 57.395 35.269 52.8179C47.63 48.2408 54.7485 36.693 51.1687 27.0252C47.5888 17.3574 34.6662 13.2305 22.3052 17.8076C9.94421 22.3847 2.82569 33.9325 6.40554 43.6003Z" fill="#9EB7D6"/>
<path fill-rule="evenodd" clip-rule="evenodd" d="M20.7238 51.3868C29.1919 51.3868 36.9905 42.3584 36.9905 29.9201C36.9905 17.4817 29.1919 8.45342 20.7238 8.45342C12.2557 8.45342 4.45713 17.4817 4.45713 29.9201C4.45713 42.3584 12.2557 51.3868 20.7238 51.3868ZM20.7238 53.7868C31.0331 53.7868 39.3905 43.1013 39.3905 29.9201C39.3905 16.7389 31.0331 6.05342 20.7238 6.05342C10.4145 6.05342 2.05713 16.7389 2.05713 29.9201C2.05713 43.1013 10.4145 53.7868 20.7238 53.7868Z" fill="#89B24C"/>
</g>
<defs>
<clipPath id="clip0_2_78">
<rect width="56" height="56" fill="white"/>
</clipPath>
</defs>
</svg>
