<svg width="129" height="128" viewBox="0 0 129 128" fill="none" xmlns="http://www.w3.org/2000/svg">
<rect x="0.75" width="128" height="128" fill="white"/>
<ellipse opacity="0.2" rx="36.5749" ry="46.7636" transform="matrix(-0.347244 0.937775 0.937775 0.347244 70.3408 62.241)" fill="#9EB7D6"/>
<path d="M26.25 93C26.25 87.7533 30.5033 83.5 35.75 83.5H45.25V102.5H35.75C30.5033 102.5 26.25 98.2467 26.25 93Z" fill="white" stroke="black" stroke-width="3"/>
<path d="M66.25 38.1815V32.5H83.25V38.1815C83.25 39.2855 83.9652 40.2143 84.9442 40.562C92.1173 43.1101 97.25 49.9576 97.25 58V96C97.25 99.5898 94.3399 102.5 90.75 102.5H58.75C55.1602 102.5 52.25 99.5899 52.25 96V58C52.25 49.9576 57.3827 43.1101 64.5558 40.562C65.5348 40.2143 66.25 39.2855 66.25 38.1815Z" fill="white" stroke="black" stroke-width="3"/>
<rect x="52.25" y="59.5" width="45" height="30" fill="#9EB7D6" stroke="black" stroke-width="3"/>
<mask id="path-6-outside-1_8_106" maskUnits="userSpaceOnUse" x="64.75" y="65" width="19" height="19" fill="black">
<rect fill="white" x="64.75" y="65" width="19" height="19"/>
<path fill-rule="evenodd" clip-rule="evenodd" d="M76.9262 69C76.9262 68.4477 76.4785 68 75.9262 68H72.5732C72.021 68 71.5732 68.4477 71.5732 69V70.8236C71.5732 71.3758 71.1255 71.8236 70.5732 71.8236L68.75 71.8236C68.1977 71.8236 67.75 72.2713 67.75 72.8236V76.1765C67.75 76.7288 68.1977 77.1765 68.75 77.1765H70.5732C71.1255 77.1765 71.5732 77.6242 71.5732 78.1765V80C71.5732 80.5523 72.021 81 72.5732 81H75.9262C76.4785 81 76.9262 80.5523 76.9262 80V78.1765C76.9262 77.6242 77.3739 77.1765 77.9262 77.1765H79.75C80.3023 77.1765 80.75 76.7288 80.75 76.1765V72.8236C80.75 72.2713 80.3023 71.8236 79.75 71.8236L77.9262 71.8236C77.3739 71.8236 76.9262 71.3758 76.9262 70.8236V69Z"/>
</mask>
<path fill-rule="evenodd" clip-rule="evenodd" d="M76.9262 69C76.9262 68.4477 76.4785 68 75.9262 68H72.5732C72.021 68 71.5732 68.4477 71.5732 69V70.8236C71.5732 71.3758 71.1255 71.8236 70.5732 71.8236L68.75 71.8236C68.1977 71.8236 67.75 72.2713 67.75 72.8236V76.1765C67.75 76.7288 68.1977 77.1765 68.75 77.1765H70.5732C71.1255 77.1765 71.5732 77.6242 71.5732 78.1765V80C71.5732 80.5523 72.021 81 72.5732 81H75.9262C76.4785 81 76.9262 80.5523 76.9262 80V78.1765C76.9262 77.6242 77.3739 77.1765 77.9262 77.1765H79.75C80.3023 77.1765 80.75 76.7288 80.75 76.1765V72.8236C80.75 72.2713 80.3023 71.8236 79.75 71.8236L77.9262 71.8236C77.3739 71.8236 76.9262 71.3758 76.9262 70.8236V69Z" fill="#FF6977"/>
<path d="M77.9262 71.8236V74.8236V71.8236ZM68.75 71.8236L68.75 74.8236L68.75 71.8236ZM72.5732 71H75.9262V65H72.5732V71ZM74.5732 70.8236V69H68.5732V70.8236H74.5732ZM68.75 74.8236H70.5732L70.5732 68.8236L68.75 68.8236L68.75 74.8236ZM70.75 76.1765V72.8236H64.75V76.1765H70.75ZM70.5732 74.1765H68.75V80.1765H70.5732V74.1765ZM74.5732 80V78.1765H68.5732V80H74.5732ZM75.9262 78H72.5732V84H75.9262V78ZM73.9262 78.1765V80H79.9262V78.1765H73.9262ZM79.75 74.1765H77.9262V80.1765H79.75V74.1765ZM77.75 72.8236V76.1765H83.75V72.8236H77.75ZM77.9262 74.8236H79.75L79.75 68.8236L77.9262 68.8236V74.8236ZM73.9262 69V70.8236H79.9262V69H73.9262ZM77.9262 68.8236C79.0308 68.8236 79.9262 69.719 79.9262 70.8236H73.9262C73.9262 73.0327 75.717 74.8236 77.9262 74.8236V68.8236ZM83.75 72.8236C83.75 70.6144 81.9591 68.8236 79.75 68.8236L79.75 74.8236C78.6454 74.8236 77.75 73.9281 77.75 72.8236H83.75ZM79.75 80.1765C81.9591 80.1765 83.75 78.3856 83.75 76.1765H77.75C77.75 75.0719 78.6454 74.1765 79.75 74.1765V80.1765ZM79.9262 78.1765C79.9262 79.2811 79.0308 80.1765 77.9262 80.1765V74.1765C75.717 74.1765 73.9262 75.9674 73.9262 78.1765H79.9262ZM75.9262 84C78.1353 84 79.9262 82.2091 79.9262 80H73.9262C73.9262 78.8954 74.8216 78 75.9262 78V84ZM68.5732 80C68.5732 82.2091 70.3641 84 72.5732 84V78C73.6778 78 74.5732 78.8954 74.5732 80H68.5732ZM70.5732 80.1765C69.4687 80.1765 68.5732 79.2811 68.5732 78.1765H74.5732C74.5732 75.9674 72.7824 74.1765 70.5732 74.1765V80.1765ZM64.75 76.1765C64.75 78.3856 66.5409 80.1765 68.75 80.1765V74.1765C69.8546 74.1765 70.75 75.0719 70.75 76.1765H64.75ZM68.75 68.8236C66.5409 68.8236 64.75 70.6144 64.75 72.8236H70.75C70.75 73.9281 69.8546 74.8236 68.75 74.8236L68.75 68.8236ZM68.5732 70.8236C68.5732 69.719 69.4687 68.8236 70.5732 68.8236L70.5732 74.8236C72.7824 74.8236 74.5732 73.0327 74.5732 70.8236H68.5732ZM75.9262 71C74.8216 71 73.9262 70.1046 73.9262 69H79.9262C79.9262 66.7909 78.1353 65 75.9262 65V71ZM72.5732 65C70.3641 65 68.5732 66.7909 68.5732 69H74.5732C74.5732 70.1046 73.6778 71 72.5732 71V65Z" fill="black" mask="url(#path-6-outside-1_8_106)"/>
<mask id="path-8-inside-2_8_106" fill="white">
<rect x="60.75" y="22" width="28" height="12" rx="2"/>
</mask>
<rect x="60.75" y="22" width="28" height="12" rx="2" fill="white" stroke="black" stroke-width="6" mask="url(#path-8-inside-2_8_106)"/>
<path d="M64.25 93C64.25 98.2467 59.9967 102.5 54.75 102.5L45.25 102.5L45.25 83.5L54.75 83.5C59.9967 83.5 64.25 87.7533 64.25 93Z" fill="#FF6977" stroke="black" stroke-width="3"/>
</svg>
