<svg width="128" height="128" viewBox="0 0 128 128" fill="none" xmlns="http://www.w3.org/2000/svg">
<rect width="128" height="128" fill="white"/>
<ellipse opacity="0.2" rx="36.5749" ry="46.7636" transform="matrix(-0.347244 0.937775 0.937775 0.347244 56.5542 54.241)" fill="#FF6977"/>
<path d="M14.5 51C14.5 47.4102 17.4101 44.5 21 44.5H77.9367H82.4005C84.1431 44.5 85.8127 45.1997 87.0347 46.4421L106.5 66.2331V85C106.5 88.5899 103.59 91.5 100 91.5H21C17.4101 91.5 14.5 88.5899 14.5 85V51Z" fill="white" stroke="black" stroke-width="3"/>
<mask id="path-4-outside-1_8_128" maskUnits="userSpaceOnUse" x="26" y="54" width="19" height="19" fill="black">
<rect fill="white" x="26" y="54" width="19" height="19"/>
<path fill-rule="evenodd" clip-rule="evenodd" d="M38.1762 58C38.1762 57.4477 37.7285 57 37.1762 57H33.8232C33.271 57 32.8232 57.4477 32.8232 58V59.8236C32.8232 60.3758 32.3755 60.8236 31.8232 60.8236L30 60.8236C29.4477 60.8236 29 61.2713 29 61.8236V65.1765C29 65.7288 29.4477 66.1765 30 66.1765H31.8232C32.3755 66.1765 32.8232 66.6242 32.8232 67.1765V69C32.8232 69.5523 33.271 70 33.8232 70H37.1762C37.7285 70 38.1762 69.5523 38.1762 69V67.1765C38.1762 66.6242 38.6239 66.1765 39.1762 66.1765H41C41.5523 66.1765 42 65.7288 42 65.1765V61.8236C42 61.2713 41.5523 60.8236 41 60.8236L39.1762 60.8236C38.6239 60.8236 38.1762 60.3758 38.1762 59.8236V58Z"/>
</mask>
<path fill-rule="evenodd" clip-rule="evenodd" d="M38.1762 58C38.1762 57.4477 37.7285 57 37.1762 57H33.8232C33.271 57 32.8232 57.4477 32.8232 58V59.8236C32.8232 60.3758 32.3755 60.8236 31.8232 60.8236L30 60.8236C29.4477 60.8236 29 61.2713 29 61.8236V65.1765C29 65.7288 29.4477 66.1765 30 66.1765H31.8232C32.3755 66.1765 32.8232 66.6242 32.8232 67.1765V69C32.8232 69.5523 33.271 70 33.8232 70H37.1762C37.7285 70 38.1762 69.5523 38.1762 69V67.1765C38.1762 66.6242 38.6239 66.1765 39.1762 66.1765H41C41.5523 66.1765 42 65.7288 42 65.1765V61.8236C42 61.2713 41.5523 60.8236 41 60.8236L39.1762 60.8236C38.6239 60.8236 38.1762 60.3758 38.1762 59.8236V58Z" fill="#FF6977"/>
<path d="M39.1762 60.8236V63.8236V60.8236ZM30 60.8236L30 63.8236L30 60.8236ZM33.8232 60H37.1762V54H33.8232V60ZM35.8232 59.8236V58H29.8232V59.8236H35.8232ZM30 63.8236H31.8232L31.8232 57.8236L30 57.8236L30 63.8236ZM32 65.1765V61.8236H26V65.1765H32ZM31.8232 63.1765H30V69.1765H31.8232V63.1765ZM35.8232 69V67.1765H29.8232V69H35.8232ZM37.1762 67H33.8232V73H37.1762V67ZM35.1762 67.1765V69H41.1762V67.1765H35.1762ZM41 63.1765H39.1762V69.1765H41V63.1765ZM39 61.8236V65.1765H45V61.8236H39ZM39.1762 63.8236H41L41 57.8236L39.1762 57.8236V63.8236ZM35.1762 58V59.8236H41.1762V58H35.1762ZM39.1762 57.8236C40.2808 57.8236 41.1762 58.719 41.1762 59.8236H35.1762C35.1762 62.0327 36.967 63.8236 39.1762 63.8236V57.8236ZM45 61.8236C45 59.6144 43.2091 57.8236 41 57.8236L41 63.8236C39.8954 63.8236 39 62.9281 39 61.8236H45ZM41 69.1765C43.2091 69.1765 45 67.3856 45 65.1765H39C39 64.0719 39.8954 63.1765 41 63.1765V69.1765ZM41.1762 67.1765C41.1762 68.2811 40.2808 69.1765 39.1762 69.1765V63.1765C36.967 63.1765 35.1762 64.9674 35.1762 67.1765H41.1762ZM37.1762 73C39.3853 73 41.1762 71.2091 41.1762 69H35.1762C35.1762 67.8954 36.0716 67 37.1762 67V73ZM29.8232 69C29.8232 71.2091 31.6141 73 33.8232 73V67C34.9278 67 35.8232 67.8954 35.8232 69H29.8232ZM31.8232 69.1765C30.7187 69.1765 29.8232 68.2811 29.8232 67.1765H35.8232C35.8232 64.9674 34.0324 63.1765 31.8232 63.1765V69.1765ZM26 65.1765C26 67.3856 27.7909 69.1765 30 69.1765V63.1765C31.1046 63.1765 32 64.0719 32 65.1765H26ZM30 57.8236C27.7909 57.8236 26 59.6144 26 61.8236H32C32 62.9281 31.1046 63.8236 30 63.8236L30 57.8236ZM29.8232 59.8236C29.8232 58.719 30.7187 57.8236 31.8232 57.8236L31.8232 63.8236C34.0324 63.8236 35.8232 62.0327 35.8232 59.8236H29.8232ZM37.1762 60C36.0716 60 35.1762 59.1046 35.1762 58H41.1762C41.1762 55.7909 39.3853 54 37.1762 54V60ZM33.8232 54C31.6141 54 29.8232 55.7909 29.8232 58H35.8232C35.8232 59.1046 34.9278 60 33.8232 60V54Z" fill="black" mask="url(#path-4-outside-1_8_128)"/>
<circle cx="35.818" cy="91.3925" r="8.10759" fill="#9EB7D6" stroke="black" stroke-width="3"/>
<circle cx="86.258" cy="91.3925" r="8.10759" fill="#9EB7D6" stroke="black" stroke-width="3"/>
<mask id="path-8-inside-2_8_128" fill="white">
<path d="M67 38C67 36.8954 67.8954 36 69 36H75C76.1046 36 77 36.8954 77 38V46H67V38Z"/>
</mask>
<path d="M67 38C67 36.8954 67.8954 36 69 36H75C76.1046 36 77 36.8954 77 38V46H67V38Z" fill="#FF6977" stroke="black" stroke-width="6" mask="url(#path-8-inside-2_8_128)"/>
</svg>
