<svg width="56" height="56" viewBox="0 0 56 56" fill="none" xmlns="http://www.w3.org/2000/svg">
<g clip-path="url(#clip0_116_25)">
<path fill-rule="evenodd" clip-rule="evenodd" d="M12.4864 48.3623C18.8901 53.9033 30.6949 52.1788 38.8337 42.7728C46.9725 33.3668 46.9826 21.4367 40.579 15.8957C34.1753 10.3548 22.3705 12.0793 14.2317 21.4853C6.09292 30.8913 6.08278 42.8214 12.4864 48.3623ZM10.916 50.1773C18.712 56.9229 32.0238 54.3109 40.6486 44.3432C49.2735 34.3754 49.9454 20.8265 42.1494 14.0808C34.3534 7.33516 21.0416 9.94715 12.4168 19.9149C3.79195 29.8827 3.12004 43.4316 10.916 50.1773Z" fill="#FFD60A"/>
<path fill-rule="evenodd" clip-rule="evenodd" d="M8.6562 42.7669C11.5967 50.7081 22.7712 54.8863 34.4356 50.5672C46.1 46.248 51.8585 35.7997 48.918 27.8585C45.9775 19.9174 34.803 15.7391 23.1386 20.0582C11.4742 24.3774 5.71571 34.8257 8.6562 42.7669ZM6.40554 43.6003C9.98539 53.2681 22.908 57.3949 35.269 52.8178C47.63 48.2407 54.7485 36.693 51.1687 27.0251C47.5888 17.3573 34.6662 13.2305 22.3052 17.8076C9.94421 22.3847 2.82569 33.9325 6.40554 43.6003Z" fill="#9EB7D6"/>
<path fill-rule="evenodd" clip-rule="evenodd" d="M20.7238 51.3866C29.1919 51.3866 36.9905 42.3582 36.9905 29.9199C36.9905 17.4815 29.1919 8.45322 20.7238 8.45322C12.2557 8.45322 4.45713 17.4815 4.45713 29.9199C4.45713 42.3582 12.2557 51.3866 20.7238 51.3866ZM20.7238 53.7866C31.0331 53.7866 39.3905 43.1011 39.3905 29.9199C39.3905 16.7387 31.0331 6.05322 20.7238 6.05322C10.4145 6.05322 2.05713 16.7387 2.05713 29.9199C2.05713 43.1011 10.4145 53.7866 20.7238 53.7866Z" fill="#89B24C"/>
</g>
<defs>
<clipPath id="clip0_116_25">
<rect width="56" height="56" fill="white"/>
</clipPath>
</defs>
</svg>
